<?xml version='1.0' encoding='utf-8'?>
<svg xmlns="http://www.w3.org/2000/svg" enable-background="new 0 0 2169.19 1686.187" version="1.1" viewBox="0 0 2169.19 1686.187">
		<path d="m962.06 1629.5c5.944-8.773 11.887-11.98 20-18.869 11.228-9.622 6.604-23.678 18.113-32.83l128.06-56.265c13.259 24.305 40.99 46.295 72.53 46.295 7.666 0 23.914 1.519 31.882-3.1 4.428-2.565 13.883 0.072 19.041-1.771 0.783-0.279 3.449-0.917 4.428-0.443 9.44 4.565 14.56 5.01 18.388 3.01 4.924-2.572 7.717-9.189 14.823-16.294 5.614-5.651 10.835-10.06 17.422-10.326 1.586-0.834 3.893-3.821 5.874-4.501 11.036-3.867 18.302-1.133 29.812-2.642 9.622-1.321 14.81-3.867 24.528-4.906 19.057-2.075 31.603 1.038 48.302-8.302 8.868-4.906 10.188-12.264 15.849-20.755 4.15-6.32 2.168-12.168 6.415-18.49 4.433-6.604 10.848-6.32 17.736-10.566 20-12.453 32.546-16.792 55.094-22.641 11.698-3.019 17.925-5.849 29.434-9.434 24.151-7.547 38.868-10.189 64.151-10.189 35.094 0 54.717 7.547 89.811 7.547 3.208 0 5.095 0.095 8.302-0.377l313.28-323.9h-1821.2c-3e-3 0.408-5e-3 0.826-5e-3 1.255 0 1.982 2.171 2.453 3.019 4.151 4.057 8.113 11.132 10.284 20.189 11.32v10.286c0 6.981 6.981 8.585 11.887 13.49 7.925 7.924 16.604 5.848 26.415 11.32 4.812 2.642 10 4.528 10 10.095v13.867h12.548c11.698 0 10.282 20.566 21.981 20.566 3.303 0 4.624-3.396 7.925-3.396 4.716 0 6.227 4.435 10.188 6.793 6.887 4.151 12.075 8.868 12.075 16.981 0 4.623-2.264 7.076-2.264 11.698 0 2.075 1.133 3.208 1.133 5.283 0 3.68-6.793 3.115-6.793 6.793 0 2.264 1.886 3.207 1.886 5.472 0 5-2.264 7.642-2.264 12.641 0 3.492 5.283 3.68 5.283 7.17 0 4.246-2.265 6.51-2.265 10.755 0 20.094 21.132 26.887 21.132 46.98 0 1.51-0.471 2.36-1.132 3.775 5.849 2.359 8.586 5.471 14.339 8.301l-0.755 0.377c5.378 5.378 13.208 6.322 13.208 13.774 0 2.076-1.132 3.207-1.132 5.283 0 3.123 0.632 7.01 2.265 9.246 0.981 1.343 2.275 1.886 4.151 1.886 7.831 0 9.151-10.566 16.98-10.566 2.454 0 3.586 1.887 6.038 1.887 2.359 0 3.68-0.755 6.037-0.755 4.247 0 5.284 5.283 9.529 5.283h7.736c12.924 0 23.49 10.66 23.49 23.585 0 8.396-6.792 12.169-6.792 20.566 0 4.528 0.755 7.17 1.132 11.699-0.377 9.434-1.132 14.717-1.132 24.151 0 15.283 19.698 18.513 20.924 33.796l11.887 16.134 24.406-0.487 86.18-0.764 159.25 100.38c13.396 14.811 28.019 17.358 47.924 17.358 10.096 0 19.623-0.377 24.152-9.434 2.17 3.303 3.302 7.17 7.265 7.17h7.736c15.754 0 22.075 13.962 37.83 13.962 7.453 0 11.415-3.396 18.868-3.396 9.623 0 13.962 7.17 23.585 7.17 3.491 0 5.471-0.755 8.867-1.51 2.076-0.282 2.83 0.377 4.906 0.377 8.679 0 14.435-0.377 21.887 4.152 3.114 1.886 3.491 6.415 7.17 6.415 6.32 0 5.565-8.396 9.056-13.585z" fill="#DA121A"/>
		<path d="m2113.8 1008l-139.24-0.377-395.48-131.7c-6.793-1.698-10.755-3.867-15.472-9.057-14.621-10.943-20.093-20.093-33.207-33.207-3.019-3.019-3.396-6.227-6.793-8.679-9.905-7.17-18.868-5.095-29.056-12.076-8.679-5.943-10.378-12.735-15.472-21.887-2.264-4.15-7.169-4.716-7.924-9.434-2.076-12.546-1.887-23.867-12.83-30.189-3.678-2.076-5.472-5.283-9.812-5.283-0.943 0-1.321 0.756-2.264 0.756-4.056 0-5.283-4.246-6.792-7.925-2.17-5.283-3.208-8.679-6.038-13.585-5.66-9.812-11.698-13.585-20.377-21.132-4.151-3.586-4.813-7.264-7.547-12.076-3.114-5.376-6.604-7.64-8.302-13.585-2.642-9.057-1.887-17.452-10.188-22.264l-1.887 0.377c0.566-3.585 0-5.565 0-9.15 0-7.169 6.131-9.434 10.188-15.378 9.906-14.529 17.829-20.094 26.038-36.604-10.659-1.698-21.979-2.454-24.528-12.83h-4.811c-2.359 0-3.396 1.509-5.756 1.509-3.585 0-5.283-2.169-8.301-4.151-4.529 6.037-11.321 3.963-18.491 6.037-5.376 1.51-6.037 8.208-11.698 8.679l-16.981-2.264c-3.491 1.132-4.623 4.528-8.302 4.528-3.114 0-4.435-2.642-7.547-2.642-5.756 0-10.473-0.755-14.34 3.396-2.547 2.736-4.435 5.66-8.302 5.66-5.471 0-8.019-3.207-13.208-4.906-6.415-2.076-11.698-0.377-16.603-5.283l2.427-16.851h-938.35c-1.214 6.621-4.453 11.374-4.453 19.117 0 3.018 2.264 4.527 2.264 7.547 0 5.189-4.528 7.547-7.169 12.076-4.34 5.849-6.604 12.83-13.963 12.83-4.433 0-5.094-4.999-7.924-8.302-6.415-7.452-9.905-15.849-19.811-15.849-5.283 0-5.661 6.226-10 9.056-7.358 4.907-11.698 8.302-15.849 16.227-2.641 5.095-4.622 8.019-8.678 12.076s-9.057 5.944-9.057 11.698c0 3.68 2.641 5.567 2.641 9.246 0 6.321-4.151 9.34-4.151 15.66 0 4.151 3.869 5.566 5.283 9.434 2.642 7.265 3.019 11.887 3.019 19.622 0 7.643-7.358 9.529-12.075 15.472-6.981 8.774-2.925 17.548-6.038 28.302-3.301 11.417-7.169 17.359-10.943 28.68-1.698 5.283-4.906 7.925-4.906 13.491 0 1.225 1.132 1.886 1.132 3.112 0.755 9.152 2.83 14.151 2.83 23.303v34.905c0 13.868 2.17 21.791 2.17 35.661v39.715l-0.472 3.019c-6.32 0-8.773 5.001-14.339 7.925-2.546 1.321-4.906-0.377-7.547 0.755-8.961 3.962-12.83 8.113-21.51 12.453-3.924 1.962-4.728 6.622-8.791 7.139-2.462-0.976-4.344-1.684-5.099-1.826-1.366-0.253-2.274-4.072-3.1-5.314-1.474-2.213-2.687-4.632-4.428-6.642-0.244-0.282-5.416-0.241-5.757 0-0.955 0.676-3.76 1.695-4.871 1.328-0.349-0.115-9.537-1.382-10.628-0.886-0.617 0.281-11.531 3.214-14.17 2.214-4.146-1.573-16.94 1.481-25.328 0.8-0.019 6.85-8.266 15.689-5.467 22.489 2.842 6.904 2.889 13.572-2.441 19.567-2.44 2.746-6.99 4.409-8.804 7.512-1.839 1.839-3.547 5.155-5.23 7.338-1.424 1.845-3.468 4.701-4.533 6.814-1.56 3.094-2.876 7.129-2.876 10.656 0 4.359 3.219 8.34 5.986 12.098 1.143 0.561 2.393 0.863 3.745 0.863h11.131c10.471 0 13.396 12.452 23.867 12.452 5.095 0 6.604-6.037 11.698-6.037 7.547 0 10.566 6.793 18.113 6.793 3.491 0 5.189-1.887 8.679-1.887 5.472 0 6.698 5.472 10.943 8.679 8.491 6.51 16.604 7.17 22.641 16.226 1.416 1.982 2.36 4.152 4.906 4.152 2.737 0 4.058-1.698 6.793-1.887 0.755 4.906 1.415 7.831 3.774 12.076 1.415 2.641 4.623 2.736 5.283 5.66 1.501 5.998 1.185 9.853 1.137 15.726h1821.2l98.423-101.76z" fill="#FCDD09"/>
		<path d="m1265.6 571.01v-18.581c0-12.453-5.472-19.151-5.472-31.604 0-12.358 6.038-18.49 9.057-30.566 10.848-6.32 14.905-13.112 22.263-23.019 8.207-10.944 12.83-17.452 19.246-29.434 4.906-9.057 6.792-14.998 13.585-22.641 3.396-3.867 7.924-3.962 10.566-8.301 5.188-8.397 7.264-13.679 11.698-22.642l-25.283-40.755-25.283-5.283-17.736-38.491-37.735-41.886-41.886-23.019-60.378-84.151-67.17-29.433c-6.131-4.529-11.791-4.906-18.49-8.679-4.34-2.454-8.49-0.755-12.076-4.151-2.924-2.736-3.396-5.756-3.396-9.812 0-2.641 0.377-4.435 1.509-6.792h-12.076c-3.113 4.245-6.508 5.754-9.434 10.188-2.736 4.151-4.433 8.679-9.434 8.679-5.66 0-6.132-6.793-11.321-9.057-11.414-4.906-14.433-16.981-26.792-16.981-6.604 0-10.093 3.678-15.094 7.925-3.301 2.83-2.546 9.057-6.981 9.057-7.452 0-12.169-2.17-17.547-7.547-0.944 2.452-0.472 5.094-2.642 6.415-3.49 2.169-6.981-0.85-10.566 1.132-3.963 2.169-5.095 4.811-7.17 9.057l-0.755-1.509c0-5.945 1.886-9.152 1.886-15.094 0-6.604-1.32-10.944-5.283-16.227-5.566 0.094-8.679 0.377-14.244 0.377-3.68 0-6.604-0.661-9.152 1.886-4.151 4.151-3.302 9.057-6.793 13.585-3.113 4.056-7.924 2.265-12.829 3.774-4.434 1.321-5.943 5.283-10.567 5.283-3.867 0-5.943-2.264-9.811-2.264-4.151 0-5.943 3.301-9.811 4.528-10.848 3.585-17.264 4.151-28.68 6.415-2.83-2.264-2.076-5.66-4.528-8.302-3.112-3.396-9.15-0.944-10.944-5.283-4.621-11.228-5.187-25.094-17.358-26.038-7.17-0.565-11.415-1.32-18.113-3.774-4.055-1.509-7.925-0.376-10.567-3.773-5.848-7.359-6.415-13.585-12.075-21.132l-56.098 100.06c-2.788-5.385-9.402-12.088-11.577-17.11-0.286-0.659 0.029-0.121-0.443-0.886-2.66-4.309-2.959-7.363-6.199-12.399-1.458-2.261-4.37-12.694-9.742-9.742-0.63 0.345-0.125-0.037-0.886 0.443-3.572 2.255-9.776 1.719-13.284 3.985-0.637 0.411-3.046 0.816-3.985 1.328-5.947 3.243-2.944 1.212-5.314 7.085-0.167 0.413-0.934 3.269-1.328 3.985-0.28 0.509-0.153 1.848-0.886 2.214-0.294 0.147-0.703 0.169-0.886 0.443-2.167 3.233-7.227 15.527-11.956 13.284-18.89-8.978-6.43-9.585-38.924-13.448-7.748-0.921-15.969 7.503-20.992 13.366h1e-3c-3.868 11.604-7.878 15.691-13.35 26.635-1.509 3.114-5.66 3.679-5.66 7.169 0 8.868 6.415 13.019 6.415 21.887 0 7.736-9.056 10-9.056 17.736 0 9.34-8.302 12.83-10.189 21.887-4.906 23.773-11.132 36.415-19.622 59.245-3.774 10.284-8.679 15.85-8.679 26.792 0 8.114 4.906 12.17 4.906 20.284v9.15l-1.132-1.886c-1.887 4.716-2.358 10.095-7.547 10.943-1.132-2.83-1.037-6.793-4.151-6.793-14.056 0-21.414 6.793-35.472 6.793-2.453 0-3.678-1.133-6.131-1.133h-8.963c-7.83 7.831-10.471 14.059-16.227 23.397-11.887 19.057-20.189 28.679-30.189 48.679-4.528 9.057-5.376 15.282-11.32 23.396-2.83 3.962-1.037 8.586-4.528 12.075-6.981 6.982-13.208 8.02-21.132 13.963-4.906 3.68-10.188 6.227-10.188 12.453 0 5.755 6.037 7.831 6.037 13.585 0 8.019-2.642 12.358-2.642 20.377 0 9.34-6.32 13.397-10.188 21.887-2.641 5.849-1.509 10.095-1.509 16.51v10.755c0 1.786-0.172 3.412-0.453 4.939h938.35l0.78-5.413z" fill="#078930"/>
		<circle cx="836.54" cy="858.19" r="424.83" fill="#0F47AF"/>
		<g fill="#FCDD09">
			<polygon points="801.19 753.17 791.98 781.49 1054.5 781.49 1093.5 753.17 912.85 753.17 836.54 518.33 821.65 564.15 883.07 753.17"/>
				<rect transform="matrix(.809 .5878 -.5878 .809 574.23 -451.74)" x="975.13" y="565.66" width="14.163" height="184.09"/>
			<polygon points="925.5 792.11 895.72 792.11 976.86 1041.8 1015.8 1070.1 960.01 898.31 1159.8 753.17 1111.6 753.17 950.8 869.99"/>
				<rect transform="matrix(.309 -.951 .951 .309 -148.15 1665.6)" x="1065.2" y="842.73" width="14.163" height="184.09"/>
			<polygon points="860.64 970.51 926.88 922.38 917.68 894.06 705.26 1048.4 690.38 1094.2 836.54 988.01 1036.3 1133.2 1021.4 1087.3"/>
			<rect x="829.46" y="1014" width="14.161" height="184.1"/>
			<polygon points="803.42 963.94 827.51 946.44 615.1 792.11 566.91 792.11 713.08 898.31 636.78 1133.2 675.76 1104.8 737.17 915.81"/>
				<rect transform="matrix(.9511 -.309 .309 .9511 -259.46 231.43)" x="508.8" y="927.69" width="184.1" height="14.163"/>
			<polygon points="751.04 781.49 725.73 859.37 749.82 876.87 830.96 627.16 816.07 581.34 760.24 753.17 513.31 753.17 552.29 781.49"/>
				<rect transform="matrix(.5878 .809 -.809 .5878 816.87 -287.82)" x="598.83" y="650.62" width="184.1" height="14.163"/>
		</g>
</svg>